<mxfile host="Electron" modified="2024-05-28T07:01:57.299Z" agent="Mozilla/5.0 (Windows NT 10.0; Win64; x64) AppleWebKit/537.36 (KHTML, like Gecko) draw.io/23.1.5 Chrome/120.0.6099.109 Electron/28.1.0 Safari/537.36" etag="RpWTWSQ75wUAZwetMZlY" version="23.1.5" type="device">
  <diagram name="페이지-1" id="JYesAf_VkUT02DAHZTTd">
    <mxGraphModel dx="559" dy="641" grid="1" gridSize="10" guides="1" tooltips="1" connect="1" arrows="1" fold="1" page="1" pageScale="1" pageWidth="827" pageHeight="1169" math="0" shadow="0">
      <root>
        <mxCell id="0" />
        <mxCell id="1" parent="0" />
        <mxCell id="0-gXEeqK8iJpIk-d55VA-21" value="" style="swimlane;startSize=0;" vertex="1" parent="1">
          <mxGeometry x="60" y="570" width="494" height="900" as="geometry" />
        </mxCell>
        <mxCell id="0-gXEeqK8iJpIk-d55VA-22" value="long long exc" style="swimlane;fontStyle=0;childLayout=stackLayout;horizontal=1;startSize=30;horizontalStack=0;resizeParent=1;resizeParentMax=0;resizeLast=0;collapsible=1;marginBottom=0;whiteSpace=wrap;html=1;" vertex="1" parent="0-gXEeqK8iJpIk-d55VA-21">
          <mxGeometry x="11" y="10" width="140" height="120" as="geometry" />
        </mxCell>
        <mxCell id="0-gXEeqK8iJpIk-d55VA-23" value="int isXor" style="text;strokeColor=none;fillColor=none;align=left;verticalAlign=middle;spacingLeft=4;spacingRight=4;overflow=hidden;points=[[0,0.5],[1,0.5]];portConstraint=eastwest;rotatable=0;whiteSpace=wrap;html=1;" vertex="1" parent="0-gXEeqK8iJpIk-d55VA-22">
          <mxGeometry y="30" width="140" height="30" as="geometry" />
        </mxCell>
        <mxCell id="0-gXEeqK8iJpIk-d55VA-43" value="int idx" style="text;strokeColor=none;fillColor=none;align=left;verticalAlign=middle;spacingLeft=4;spacingRight=4;overflow=hidden;points=[[0,0.5],[1,0.5]];portConstraint=eastwest;rotatable=0;whiteSpace=wrap;html=1;" vertex="1" parent="0-gXEeqK8iJpIk-d55VA-22">
          <mxGeometry y="60" width="140" height="30" as="geometry" />
        </mxCell>
        <mxCell id="0-gXEeqK8iJpIk-d55VA-44" value="vectpr&amp;lt;int&amp;gt;&amp;amp; nums" style="text;strokeColor=none;fillColor=none;align=left;verticalAlign=middle;spacingLeft=4;spacingRight=4;overflow=hidden;points=[[0,0.5],[1,0.5]];portConstraint=eastwest;rotatable=0;whiteSpace=wrap;html=1;" vertex="1" parent="0-gXEeqK8iJpIk-d55VA-22">
          <mxGeometry y="90" width="140" height="30" as="geometry" />
        </mxCell>
        <mxCell id="0-gXEeqK8iJpIk-d55VA-47" value="return dp[idx][isXor]" style="rounded=0;whiteSpace=wrap;html=1;" vertex="1" parent="0-gXEeqK8iJpIk-d55VA-21">
          <mxGeometry x="50" y="330" width="120" height="60" as="geometry" />
        </mxCell>
        <mxCell id="0-gXEeqK8iJpIk-d55VA-49" value="maxVal = 0;" style="ellipse;whiteSpace=wrap;html=1;" vertex="1" parent="0-gXEeqK8iJpIk-d55VA-21">
          <mxGeometry x="170" y="50" width="120" height="80" as="geometry" />
        </mxCell>
        <mxCell id="0-gXEeqK8iJpIk-d55VA-50" value="" style="group" vertex="1" connectable="0" parent="0-gXEeqK8iJpIk-d55VA-21">
          <mxGeometry x="70" y="520" width="424" height="240" as="geometry" />
        </mxCell>
        <mxCell id="0-gXEeqK8iJpIk-d55VA-51" value="adjList[idx]의 모든 요소에 대해 반복" style="swimlane;whiteSpace=wrap;html=1;" vertex="1" parent="0-gXEeqK8iJpIk-d55VA-50">
          <mxGeometry x="-40" width="300" height="240" as="geometry" />
        </mxCell>
        <mxCell id="0-gXEeqK8iJpIk-d55VA-55" value="# 다음칸에 XOR 했을 때&lt;br&gt;maxVal = exc(1, idx + 1, nums) + nums[idx] ^ (k ^ isXor)" style="rounded=0;whiteSpace=wrap;html=1;" vertex="1" parent="0-gXEeqK8iJpIk-d55VA-51">
          <mxGeometry x="10" y="40" width="260" height="60" as="geometry" />
        </mxCell>
        <mxCell id="0-gXEeqK8iJpIk-d55VA-57" value="# 다음칸에 XOR안 했을 때&lt;br&gt;maxVal = exc(0, idx + 1, nums)&amp;nbsp; +&amp;nbsp;&lt;br&gt;nums[idx]&amp;nbsp; ^ (k ^ isXor)" style="rounded=0;whiteSpace=wrap;html=1;" vertex="1" parent="0-gXEeqK8iJpIk-d55VA-51">
          <mxGeometry x="10" y="110" width="280" height="90" as="geometry" />
        </mxCell>
        <mxCell id="0-gXEeqK8iJpIk-d55VA-52" value="&lt;h1&gt;예외처리&lt;/h1&gt;&lt;p&gt;1.&amp;nbsp;&lt;/p&gt;" style="text;html=1;spacing=5;spacingTop=-20;whiteSpace=wrap;overflow=hidden;rounded=0;" vertex="1" parent="0-gXEeqK8iJpIk-d55VA-50">
          <mxGeometry x="270" y="40" width="140" height="120" as="geometry" />
        </mxCell>
        <mxCell id="0-gXEeqK8iJpIk-d55VA-54" value="return dp[idx][isXor] = maxVal + nums[idx]" style="rounded=0;whiteSpace=wrap;html=1;" vertex="1" parent="0-gXEeqK8iJpIk-d55VA-21">
          <mxGeometry x="40" y="810" width="270" height="60" as="geometry" />
        </mxCell>
        <mxCell id="0-gXEeqK8iJpIk-d55VA-58" value="adjList[idx].empty()" style="rhombus;whiteSpace=wrap;html=1;" vertex="1" parent="0-gXEeqK8iJpIk-d55VA-21">
          <mxGeometry x="90" y="410" width="140" height="80" as="geometry" />
        </mxCell>
        <mxCell id="0-gXEeqK8iJpIk-d55VA-59" value="&lt;span style=&quot;color: rgb(240, 240, 240); font-family: Helvetica; font-size: 12px; font-style: normal; font-variant-ligatures: normal; font-variant-caps: normal; font-weight: 400; letter-spacing: normal; orphans: 2; text-align: center; text-indent: 0px; text-transform: none; widows: 2; word-spacing: 0px; -webkit-text-stroke-width: 0px; background-color: rgb(27, 29, 30); text-decoration-thickness: initial; text-decoration-style: initial; text-decoration-color: initial; float: none; display: inline !important;&quot;&gt;dp[idx][isXor] 이 -1이 아닌가&lt;/span&gt;" style="rounded=0;whiteSpace=wrap;html=1;shape=rhombus;perimeter=rhombusPerimeter;" vertex="1" parent="0-gXEeqK8iJpIk-d55VA-21">
          <mxGeometry x="20" y="170" width="200" height="110" as="geometry" />
        </mxCell>
        <mxCell id="0-gXEeqK8iJpIk-d55VA-27" value="" style="swimlane;startSize=0;" vertex="1" parent="1">
          <mxGeometry x="530" y="20" width="278" height="370" as="geometry" />
        </mxCell>
        <mxCell id="0-gXEeqK8iJpIk-d55VA-28" value="" style="ellipse;whiteSpace=wrap;html=1;" vertex="1" parent="0-gXEeqK8iJpIk-d55VA-27">
          <mxGeometry x="24" y="20" width="120" height="80" as="geometry" />
        </mxCell>
        <mxCell id="0-gXEeqK8iJpIk-d55VA-29" value=": 변수 선언" style="text;html=1;align=center;verticalAlign=middle;whiteSpace=wrap;rounded=0;" vertex="1" parent="0-gXEeqK8iJpIk-d55VA-27">
          <mxGeometry x="170" y="50" width="60" height="30" as="geometry" />
        </mxCell>
        <mxCell id="0-gXEeqK8iJpIk-d55VA-30" value="" style="rounded=0;whiteSpace=wrap;html=1;" vertex="1" parent="0-gXEeqK8iJpIk-d55VA-27">
          <mxGeometry x="24" y="110" width="120" height="60" as="geometry" />
        </mxCell>
        <mxCell id="0-gXEeqK8iJpIk-d55VA-31" value=": 행동 코드" style="text;html=1;align=center;verticalAlign=middle;whiteSpace=wrap;rounded=0;" vertex="1" parent="0-gXEeqK8iJpIk-d55VA-27">
          <mxGeometry x="170" y="120" width="60" height="30" as="geometry" />
        </mxCell>
        <mxCell id="0-gXEeqK8iJpIk-d55VA-32" value="~ 동안" style="swimlane;whiteSpace=wrap;html=1;" vertex="1" parent="0-gXEeqK8iJpIk-d55VA-27">
          <mxGeometry x="24" y="180" width="120" height="70" as="geometry" />
        </mxCell>
        <mxCell id="0-gXEeqK8iJpIk-d55VA-33" value=": 반복 구문" style="text;html=1;align=center;verticalAlign=middle;whiteSpace=wrap;rounded=0;" vertex="1" parent="0-gXEeqK8iJpIk-d55VA-27">
          <mxGeometry x="170" y="200" width="60" height="30" as="geometry" />
        </mxCell>
        <mxCell id="0-gXEeqK8iJpIk-d55VA-34" value="" style="rhombus;whiteSpace=wrap;html=1;" vertex="1" parent="0-gXEeqK8iJpIk-d55VA-27">
          <mxGeometry x="24" y="260" width="120" height="80" as="geometry" />
        </mxCell>
        <mxCell id="0-gXEeqK8iJpIk-d55VA-35" value=": if문" style="text;html=1;align=center;verticalAlign=middle;whiteSpace=wrap;rounded=0;" vertex="1" parent="0-gXEeqK8iJpIk-d55VA-27">
          <mxGeometry x="156" y="285" width="60" height="30" as="geometry" />
        </mxCell>
        <mxCell id="0-gXEeqK8iJpIk-d55VA-38" value="unordered_map&amp;lt;int, int&amp;gt;[20000] = adjList" style="ellipse;whiteSpace=wrap;html=1;" vertex="1" parent="1">
          <mxGeometry x="90" y="100" width="260" height="110" as="geometry" />
        </mxCell>
        <mxCell id="0-gXEeqK8iJpIk-d55VA-39" value="edges의 작은놈 -&amp;gt; 큰놈 순으로 놓는다&amp;nbsp;&lt;br&gt;adjList[작은수][큰 수] = 2" style="rounded=0;whiteSpace=wrap;html=1;" vertex="1" parent="1">
          <mxGeometry x="90" y="230" width="260" height="60" as="geometry" />
        </mxCell>
        <mxCell id="0-gXEeqK8iJpIk-d55VA-40" value="vector&amp;lt;vector&amp;lt;int&amp;gt;&amp;gt;&amp;nbsp; streams vector&amp;lt;vector&amp;lt;int&amp;gt;&amp;gt; (nums.size(), vector&amp;lt;int&amp;gt; (2, -1));" style="ellipse;whiteSpace=wrap;html=1;" vertex="1" parent="1">
          <mxGeometry x="100" y="310" width="280" height="80" as="geometry" />
        </mxCell>
        <mxCell id="0-gXEeqK8iJpIk-d55VA-41" value="내가 지금 더이상 갈 곳이 없다면 isXor에 따라서 리턴" style="whiteSpace=wrap;html=1;aspect=fixed;" vertex="1" parent="1">
          <mxGeometry x="130" y="440" width="80" height="80" as="geometry" />
        </mxCell>
        <mxCell id="0-gXEeqK8iJpIk-d55VA-42" value="갈 수 있는 곳 모두 조사후 근데 이러면 DP가 맞음?" style="rounded=0;whiteSpace=wrap;html=1;" vertex="1" parent="1">
          <mxGeometry x="250" y="450" width="120" height="60" as="geometry" />
        </mxCell>
      </root>
    </mxGraphModel>
  </diagram>
</mxfile>
